<svg xmlns="http://www.w3.org/2000/svg" width="82" height="95" viewBox="0 0 82 95"><rect width="100%" height="100%" fill="#DDDDDD"/><path fill="#999999" d="M20.075 51.59q.46 0 .81-.13.34-.13.58-.36.23-.23.35-.56.12-.32.12-.69 0-.9-.49-1.35-.5-.46-1.37-.46-.87 0-1.36.46-.5.45-.5 1.35 0 .37.12.69.12.33.36.56.24.23.58.36.35.13.8.13Zm0-8.24q-.41 0-.71.13t-.5.34q-.2.21-.29.49-.09.28-.09.58 0 .33.08.63.07.31.26.54.19.24.5.38.3.14.75.14t.76-.14q.31-.14.5-.38.18-.23.26-.54.08-.3.08-.63 0-.3-.1-.58-.09-.28-.29-.49-.19-.21-.49-.34-.3-.13-.72-.13Zm1.83 3.92q.99.32 1.47.98.47.67.47 1.63 0 .72-.27 1.3-.28.58-.77 1-.5.41-1.19.64-.7.22-1.54.22-.84 0-1.53-.22-.69-.23-1.19-.64-.49-.42-.77-1-.27-.58-.27-1.3 0-.96.47-1.63.47-.66 1.46-.98-.78-.33-1.18-.94-.39-.61-.39-1.46 0-.62.25-1.15.25-.53.7-.93.45-.39 1.08-.61.62-.22 1.37-.22.75 0 1.38.22.63.22 1.08.61.45.4.7.93.25.53.25 1.15 0 .85-.39 1.46-.4.61-1.19.94Zm7.1 3.93h2.78q.3 0 .48.16.17.17.17.45v1.11h-7.44v-.61q0-.19.08-.4.08-.2.25-.37l3.3-3.3q.41-.42.74-.8.32-.39.54-.76.22-.37.33-.76.12-.39.12-.81 0-.4-.11-.69-.12-.3-.32-.5-.21-.2-.5-.3-.29-.1-.65-.1-.33 0-.61.09-.28.09-.5.26-.21.17-.36.4-.15.22-.23.49-.13.35-.33.46-.2.11-.58.05l-.98-.17q.11-.78.44-1.37.32-.59.8-.98.49-.4 1.11-.6.63-.19 1.35-.19.75 0 1.37.22.62.22 1.07.62.44.41.69.98.24.57.24 1.26 0 .61-.17 1.12-.18.51-.47.97-.3.46-.7.9l-.83.89-2.45 2.49q.36-.1.71-.16.34-.05.66-.05Zm15.66-.76-.98.97-2.55-2.55-2.56 2.56-.98-.97 2.56-2.57-2.44-2.44.97-.98 2.45 2.45 2.43-2.44.99.98-2.44 2.44 2.55 2.55Zm6.93-5.11q0 .91.47 1.38.47.48 1.33.48.45 0 .8-.14.35-.14.59-.39t.37-.59q.12-.33.12-.72 0-.45-.13-.8-.14-.34-.39-.59-.24-.24-.58-.36-.35-.13-.75-.13-.42 0-.76.14t-.58.39q-.24.24-.36.58-.13.34-.13.75Zm-.91 7.59 3.37-4.21q.13-.16.24-.3.11-.16.22-.3-.38.23-.83.36-.45.12-.94.12-.57 0-1.11-.19-.54-.2-.96-.59-.42-.39-.67-.98-.26-.58-.26-1.36 0-.72.27-1.36.27-.64.75-1.12.49-.48 1.17-.76.69-.27 1.51-.27.83 0 1.5.26.66.26 1.13.73.47.48.72 1.14.25.66.25 1.44 0 .51-.08.96-.09.45-.25.86-.16.42-.38.82-.23.39-.5.78l-2.49 3.54q-.12.18-.38.31-.25.12-.58.12h-1.7Zm10.56-9.16-.38 2.25q.36-.07.69-.11.33-.03.64-.03.85 0 1.5.26.66.25 1.1.7.44.45.67 1.05.22.61.22 1.31 0 .86-.3 1.57-.31.71-.85 1.22t-1.27.78q-.74.28-1.61.28-.51 0-.97-.11-.46-.1-.86-.28-.4-.17-.74-.4-.34-.23-.61-.49l.57-.78q.18-.26.47-.26.19 0 .38.12l.45.27q.25.14.59.26.34.12.82.12.51 0 .9-.17.39-.16.65-.46.26-.29.39-.7t.13-.89q0-.89-.51-1.39-.52-.5-1.52-.5-.77 0-1.58.29l-1.16-.33.9-5.26h5.36v.78q0 .4-.25.65t-.84.25h-2.98Z"/></svg>